<mxfile host="app.diagrams.net" modified="2024-01-31T14:40:03.022Z" agent="Mozilla/5.0 (Windows NT 10.0; Win64; x64) AppleWebKit/537.36 (KHTML, like Gecko) Chrome/121.0.0.0 Safari/537.36" etag="xYO0KxAZht4xPZRUOT3H" version="23.0.2" type="github">
  <diagram name="第 1 页" id="neKxh6z_9__IzbFEOgkC">
    <mxGraphModel dx="2261" dy="1907" grid="1" gridSize="2" guides="1" tooltips="1" connect="1" arrows="1" fold="1" page="1" pageScale="1" pageWidth="827" pageHeight="1169" math="0" shadow="0">
      <root>
        <mxCell id="0" />
        <mxCell id="1" parent="0" />
        <mxCell id="-akV54SEEkOJsXPi6OF7-1" value="«interface»&lt;br&gt;&lt;b&gt;AnnotationConfigRegistry&lt;/b&gt;" style="html=1;whiteSpace=wrap;" vertex="1" parent="1">
          <mxGeometry x="-6" y="46" width="216" height="50" as="geometry" />
        </mxCell>
        <mxCell id="-akV54SEEkOJsXPi6OF7-21" style="edgeStyle=orthogonalEdgeStyle;rounded=0;orthogonalLoop=1;jettySize=auto;html=1;exitX=0.5;exitY=0;exitDx=0;exitDy=0;entryX=0.5;entryY=1;entryDx=0;entryDy=0;endArrow=block;endFill=0;" edge="1" parent="1" source="-akV54SEEkOJsXPi6OF7-2" target="-akV54SEEkOJsXPi6OF7-3">
          <mxGeometry relative="1" as="geometry" />
        </mxCell>
        <mxCell id="-akV54SEEkOJsXPi6OF7-2" value="AnnotationConfigApplicationContext" style="html=1;whiteSpace=wrap;" vertex="1" parent="1">
          <mxGeometry x="262" y="458" width="242" height="48" as="geometry" />
        </mxCell>
        <mxCell id="-akV54SEEkOJsXPi6OF7-3" value="GenericApplicationContext" style="html=1;whiteSpace=wrap;" vertex="1" parent="1">
          <mxGeometry x="264" y="345" width="238" height="48" as="geometry" />
        </mxCell>
        <mxCell id="-akV54SEEkOJsXPi6OF7-4" value="AbstractApplicationContext" style="html=1;whiteSpace=wrap;" vertex="1" parent="1">
          <mxGeometry x="258" y="238" width="238" height="48" as="geometry" />
        </mxCell>
        <mxCell id="-akV54SEEkOJsXPi6OF7-5" value="«interface»&lt;br&gt;&lt;b&gt;AutoCloseable&lt;/b&gt;" style="html=1;whiteSpace=wrap;" vertex="1" parent="1">
          <mxGeometry x="870" y="-26" width="216" height="50" as="geometry" />
        </mxCell>
        <mxCell id="-akV54SEEkOJsXPi6OF7-6" value="DefaultResourceLoader" style="html=1;whiteSpace=wrap;" vertex="1" parent="1">
          <mxGeometry x="632" y="138" width="238" height="48" as="geometry" />
        </mxCell>
        <mxCell id="-akV54SEEkOJsXPi6OF7-7" value="«interface»&lt;br&gt;&lt;b&gt;ConfigurableApplicationContext&lt;/b&gt;" style="html=1;whiteSpace=wrap;" vertex="1" parent="1">
          <mxGeometry x="306" y="74" width="216" height="50" as="geometry" />
        </mxCell>
        <mxCell id="-akV54SEEkOJsXPi6OF7-8" value="«interface»&lt;br&gt;&lt;b&gt;ResourcePatternResolver&lt;/b&gt;" style="html=1;whiteSpace=wrap;" vertex="1" parent="1">
          <mxGeometry x="1044" y="-172" width="216" height="50" as="geometry" />
        </mxCell>
        <mxCell id="-akV54SEEkOJsXPi6OF7-9" value="«interface»&lt;br&gt;&lt;b&gt;ApplicationContext&lt;/b&gt;" style="html=1;whiteSpace=wrap;" vertex="1" parent="1">
          <mxGeometry x="128" y="-26" width="216" height="50" as="geometry" />
        </mxCell>
        <mxCell id="-akV54SEEkOJsXPi6OF7-10" value="«interface»&lt;br&gt;&lt;b&gt;ListableBeanFactory&lt;/b&gt;" style="html=1;whiteSpace=wrap;" vertex="1" parent="1">
          <mxGeometry x="108" y="-172" width="216" height="50" as="geometry" />
        </mxCell>
        <mxCell id="-akV54SEEkOJsXPi6OF7-11" value="«interface»&lt;br&gt;&lt;b&gt;ApplicationEventPublisher&lt;/b&gt;" style="html=1;whiteSpace=wrap;" vertex="1" parent="1">
          <mxGeometry x="804" y="-170" width="216" height="50" as="geometry" />
        </mxCell>
        <mxCell id="-akV54SEEkOJsXPi6OF7-12" value="«interface»&lt;br&gt;&lt;b&gt;MessageSource&lt;/b&gt;" style="html=1;whiteSpace=wrap;" vertex="1" parent="1">
          <mxGeometry x="572" y="-170" width="216" height="50" as="geometry" />
        </mxCell>
        <mxCell id="-akV54SEEkOJsXPi6OF7-13" value="«interface»&lt;br&gt;&lt;b&gt;BeanFactory&lt;/b&gt;" style="html=1;whiteSpace=wrap;" vertex="1" parent="1">
          <mxGeometry x="160" y="-266" width="216" height="50" as="geometry" />
        </mxCell>
        <mxCell id="-akV54SEEkOJsXPi6OF7-14" value="«interface»&lt;br&gt;&lt;b&gt;EnvironmentCapable&lt;/b&gt;" style="html=1;whiteSpace=wrap;" vertex="1" parent="1">
          <mxGeometry x="-164" y="-170" width="216" height="50" as="geometry" />
        </mxCell>
        <mxCell id="-akV54SEEkOJsXPi6OF7-15" value="«interface»&lt;br&gt;&lt;b&gt;HierarchicalBeanFactory&lt;/b&gt;" style="html=1;whiteSpace=wrap;" vertex="1" parent="1">
          <mxGeometry x="340" y="-172" width="216" height="50" as="geometry" />
        </mxCell>
        <mxCell id="-akV54SEEkOJsXPi6OF7-16" value="«interface»&lt;br&gt;&lt;b&gt;ResourceLoader&lt;/b&gt;" style="html=1;whiteSpace=wrap;" vertex="1" parent="1">
          <mxGeometry x="1036" y="-268" width="216" height="50" as="geometry" />
        </mxCell>
        <mxCell id="-akV54SEEkOJsXPi6OF7-17" value="«interface»&lt;br&gt;&lt;b&gt;BeanDefinitionRegistry&lt;/b&gt;" style="html=1;whiteSpace=wrap;" vertex="1" parent="1">
          <mxGeometry x="1016" y="52" width="216" height="50" as="geometry" />
        </mxCell>
        <mxCell id="-akV54SEEkOJsXPi6OF7-18" value="«interface»&lt;br&gt;&lt;b&gt;Closeable&lt;/b&gt;" style="html=1;whiteSpace=wrap;" vertex="1" parent="1">
          <mxGeometry x="634" y="-22" width="216" height="50" as="geometry" />
        </mxCell>
        <mxCell id="-akV54SEEkOJsXPi6OF7-19" value="«interface»&lt;br&gt;&lt;b&gt;Lifecycle&lt;/b&gt;" style="html=1;whiteSpace=wrap;" vertex="1" parent="1">
          <mxGeometry x="392" y="-24" width="216" height="50" as="geometry" />
        </mxCell>
        <mxCell id="-akV54SEEkOJsXPi6OF7-22" style="edgeStyle=orthogonalEdgeStyle;rounded=0;orthogonalLoop=1;jettySize=auto;html=1;exitX=0.5;exitY=0;exitDx=0;exitDy=0;entryX=0.529;entryY=0.979;entryDx=0;entryDy=0;entryPerimeter=0;endArrow=block;endFill=0;" edge="1" parent="1" source="-akV54SEEkOJsXPi6OF7-3" target="-akV54SEEkOJsXPi6OF7-4">
          <mxGeometry relative="1" as="geometry" />
        </mxCell>
      </root>
    </mxGraphModel>
  </diagram>
</mxfile>
